<?xml version="1.0" encoding="utf-8"?>
<!-- Generator: Adobe Illustrator 26.0.1, SVG Export Plug-In . SVG Version: 6.00 Build 0)  -->
<svg version="1.1" id="Layer_1" xmlns="http://www.w3.org/2000/svg" xmlns:xlink="http://www.w3.org/1999/xlink" x="0px" y="0px"
	 viewBox="0 0 3088.5 1274" style="enable-background:new 0 0 3088.5 1274;" xml:space="preserve">
<style type="text/css">
	.st0{fill-rule:evenodd;clip-rule:evenodd;fill:#EDBC00;stroke:#000004;stroke-width:28.7715;stroke-miterlimit:3.2;}
	.st1{fill:#FFFFFF;}
	.st2{fill-rule:evenodd;clip-rule:evenodd;fill:#DC0030;}
	.st3{fill:none;stroke:#000000;stroke-width:10.5777;stroke-miterlimit:3.2;}
	.st4{fill-rule:evenodd;clip-rule:evenodd;fill:#FFEE02;}
	.st5{fill-rule:evenodd;clip-rule:evenodd;}
	.st6{fill-rule:evenodd;clip-rule:evenodd;fill:#A50044;}
	.st7{fill-rule:evenodd;clip-rule:evenodd;fill:#004E98;}
	.st8{fill:#EDBB01;stroke:#000000;stroke-width:10.5777;stroke-linecap:round;stroke-miterlimit:3.2;}
	.st9{font-family:'BritannicBold';}
	.st10{font-size:291px;}
</style>
<g>
	<g>
		<path id="path3347-5" class="st0" d="M202.8,122.6L164.9,178c145.2,224.1,20.6,357.4-45.1,453.2l48.1,55.3
			c-5.4,230,87.3,401.2,410.6,433.9l77.2,61.2l75.7-62.6c317.2-34.2,418.8-202.2,410.6-435.4l46.6-52.4
			c-84.1-119.4-183.1-231.9-45.1-452.9l-34.9-49.5c-98.4,29-193.3,20-284-36.4c-109.7,75.7-223.3,75.7-340.7,0
			C391.2,149.1,295.5,155.3,202.8,122.6L202.8,122.6z"/>
		<path id="rect4186" class="st1" d="M483.2,158.6c-66.5,36.4-147.8,49-245.4,34.9c54,101.1,68.3,187.5,15.3,337.1h400.5V208.2
			C563.7,205.4,528.8,179.8,483.2,158.6L483.2,158.6z"/>
		<path id="path4191-1" class="st2" d="M483.2,158.6c-24.9,13.6-51.8,23.9-80.8,30.7v108.4H278.7c8.6,38,10.2,77.9,3.1,123.8h122
			v109.2h123V418.6h126.7V297h-126V180.2C512.3,173.2,498.3,165.7,483.2,158.6L483.2,158.6z"/>
		<path id="path4182-6" class="st3" d="M237.8,193.6c54,101.1,68.3,187.5,15.3,337.1l400.5-0.7V208.2
			c-89.8-2.7-124.8-28.4-170.4-49.5C416.6,195.1,335.4,207.7,237.8,193.6L237.8,193.6z"/>
		<path id="path4214" class="st4" d="M697.4,203.5c-14.1,2.3-28.4,3.8-43.1,4.7L653.5,530h43.8V203.5L697.4,203.5z"/>
		<path id="path4216" class="st2" d="M741.2,193.3c-14.7,4.5-29.2,7.8-43.8,10.2v23.4V530h43.8V193.3L741.2,193.3z"/>
		<path id="path4218-3" class="st4" d="M785.1,176.7c-15,6.8-29.5,12.3-43.8,16.7v33.6V530h43.8V176.7z"/>
		<path id="path4220" class="st2" d="M823.9,156.5c-13.4,7.8-26.3,14.5-38.8,20.2v50.3V530h43.8V159.5
			C827.2,158.5,825.5,157.5,823.9,156.5L823.9,156.5z"/>
		<path id="path4224" class="st4" d="M828.9,159.5v67.4V530h43.8V179.8C856.4,174.1,841.9,167.3,828.9,159.5L828.9,159.5z"/>
		<path id="path4226-6" class="st2" d="M872.7,179.8v47.1V530h43.8V191.4C900.6,188.3,886.1,184.5,872.7,179.8L872.7,179.8z"/>
		<path id="path4228" class="st4" d="M916.6,191.4v35.5V530h43.8V197.2C944.7,195.9,930.2,193.9,916.6,191.4L916.6,191.4z"/>
		<path id="path4230" class="st2" d="M960.4,197.2v29.8V530h43.8V198.8C988.8,198.8,974.2,198.2,960.4,197.2L960.4,197.2z"/>
		<path id="path4232-5" class="st4" d="M1067.8,195.8c-22.8,2-43.9,3-63.5,3v28.2V530h50.4C1039.6,472.9,974.6,379.2,1067.8,195.8
			L1067.8,195.8z"/>
		<path id="path4184" class="st3" d="M654.3,208.2c57.3-3.4,107.9-15.7,169.6-51.7c50.9,32.2,125.2,49.7,243.9,39.3
			c-93.2,183.4-28.2,277.1-13.1,334.2H653.5L654.3,208.2z"/>
		<path id="path4305" class="st5" d="M471.9,550.8v109.7h22.3v-46h31.7v-22.3h-31.4V574h54.9v-23.4L471.9,550.8z"/>
		<path id="path4307" class="st5" d="M666.5,584l20.3-10.3c0,0-9.5-24.6-44.3-24.6c-34.8,0-48.1,34.7-46.3,61.4
			c1.8,26.7,14.3,53.7,50.3,53.7c17.9,0,27.2-5,38.9-27.4l-17.7-10.6c-7.2,10.3-11,12.6-22,12.6c-16.7,0-25-16.7-25.7-33.7
			c-0.7-17,10.2-33.4,23.1-33.4C656,571.7,660.2,576.7,666.5,584L666.5,584z"/>
		<path id="path4309" class="st5" d="M744.9,549.1v112.8h64.7c0.7,1.2,26.1-10.2,26.1-33.3c0-21.4-12.2-24.9-12.3-27.3
			c-0.1-2.1,9.1-9.7,9.1-24.9c0-22.9-23.8-27.1-23.8-27.1L744.9,549.1z M768,573.1h32.6c0,0,5.8,1.4,6.1,8.1s-5.7,9.2-5.7,9.2h-33
			V573.1z M768.2,613.6h36.2c2.8,1.7,6.5,5.3,6.8,11.8c-0.2,8.2-3.2,10-6.3,13.3h-36.7V613.6z"/>
		<path id="path4322" class="st6" d="M338.9,682.5v64.7l-0.6,237.4c35.7,26.3,78.4,46.6,126.7,59.8V682.5H338.9L338.9,682.5z"/>
		<path id="path4324" class="st7" d="M224.9,682.5c-22.4,129.8,23.2,235.8,114,302.5V682.5H224.9z"/>
		<path id="path4326" class="st7" d="M717.2,682.5v64.7l-0.8,314.4h38c32.2-4.8,61.8-11.1,88.9-18.9V682.5H717.2L717.2,682.5z"/>
		<path id="path4328" class="st6" d="M591.1,682.5v64.7l-0.8,314.4h126.9V682.5H591.1L591.1,682.5z"/>
		<path id="path4334" class="st7" d="M969.4,682.5v64.7l-0.6,237.5c95.5-68,128.4-172.4,117.8-302.1L969.4,682.5L969.4,682.5z"/>
		<path id="path4336" class="st6" d="M843.3,682.5v64.7l-0.7,295.7c50.8-14.6,92.8-34.3,126.8-58.6V682.5L843.3,682.5L843.3,682.5z"
			/>
		<path id="path4338-6" class="st7" d="M465,682.5v64.7l-0.7,297c35.2,9.7,73.3,15.6,113.9,17.4h12.9V682.5H465z"/>
		<path id="path4320" class="st3" d="M224.9,682.5h861.6c16.4,200.3-71,340.2-332.2,379.1H578.1C341,1050.9,187.3,900.2,224.9,682.5
			z"/>
		<ellipse id="path4363" class="st8" cx="657.1" cy="866.3" rx="116.6" ry="116.6"/>
		<path id="path4374" class="st5" d="M650.5,747.5c-10.5,13-13.4,23.1-11.7,31.5c1.5,7.5,6.4,13.1,11.3,18.2
			c-12.8,16.1-17.4,29.4-15.8,40.9c1.6,11.2,9,19.9,18.8,27.4c-9.1,17.8-18,26.1-26.1,28.4c-8.2,2.3-16.6-0.9-25.6-7.4l-0.9-0.9
			c-9.1-9.3-16.7-19.5-19.3-36.7c-2.5-17.2,0.1-41.5,12.5-78.1l-5.4-1.8c-12.6,37.1-15.5,62.2-12.7,80.8c2.6,17.4,10.4,28.7,19.2,38
			c-8.6,12.1-16,17.1-22.8,19.3c-7.2,2.3-14.4,1.6-22.4,2.6l-3.6,0.4l1.3,3.4c10,27,25,36.4,38.2,48l1,0.9l1.3-0.2
			c27-4.4,53.2-9.8,75.4-20c21.7-10,39.5-25,49.9-47.9c7.5-1.4,14.5-2.3,21.6,0.2c7.4,2.6,15.3,9,23.9,23.5l1.7,3l2.6-2.3
			c2.8-2.4,5.7-6.1,8.1-13.3c2.4-7.1,4.5-17.9,6.3-35.2l0.1-1.3l-0.9-1c-15.7-16.9-29.2-36.8-47.5-51.9c-18-14.9-40.9-24.8-74-21.9
			c-5-5.2-9.4-10.2-10.6-16.2c-1.3-6.3,0.6-14.5,10.6-26.8L650.5,747.5L650.5,747.5z M666.3,799.3c3.5,0,6.9,0.1,10.2,0.4
			c20.5,2,35.7,9.9,48.8,20.7c17.1,14.1,30.4,33.3,46.1,50.4c-1.7,16.3-3.7,26.5-5.9,32.8c-1.4,4.3-2.8,6.5-4.3,8.3
			c-8.3-12.9-16.5-19.9-24.8-22.8c-8.1-2.9-16-2-23.4-0.6c-5.3-14.3-11.8-25.5-21.1-31.2c-4.9-3-10.5-4.2-16.7-3.4
			c-5.7,0.7-11.9,3.2-18.5,7.4c-9.3-7-15.6-14.7-16.9-24c-1.3-9.6,2.6-21.7,15.4-37.5C659.1,799.6,662.8,799.4,666.3,799.3
			L666.3,799.3z M679.5,859.3c3.5,0.1,6.7,1.2,9.6,2.9c7.6,4.6,14,15.1,19.1,29.4c-9.8,21.8-26.4,35.8-47.4,45.5
			c-21,9.7-46.3,15-72.7,19.3c-12.5-10.8-24.7-19.4-33.8-41.2c6.1-0.4,12.4-0.3,19.4-2.5c7.9-2.5,16.3-8.5,25.2-20.8
			c9.5,6.6,19.4,10.6,29.6,7.7c10.7-3,20.7-13.1,30.4-32.6C667.1,861.3,673.7,859.1,679.5,859.3L679.5,859.3z"/>
	</g>
	<text transform="matrix(1 0 0 1 1252.4028 547.2988)"><tspan x="0" y="0" class="st1 st9 st10">FC Barcelona</tspan><tspan x="0" y="349.2" class="st1 st9 st10">Fan Club</tspan></text>
</g>
</svg>
