<svg version="1.2" baseProfile="tiny-ps" xmlns="http://www.w3.org/2000/svg" viewBox="0 0 200 82" width="200" height="82">
	<title>logo-svg</title>
	<style>
		tspan { white-space:pre }
		.s0 { fill: #edbc00;stroke: #000004;stroke-width: 1.9 } 
		.s1 { fill: #ffffff } 
		.s2 { fill: #dc0030 } 
		.s3 { fill: none;stroke: #000000;stroke-width: .7 } 
		.s4 { fill: #ffee02 } 
		.s5 { fill: #000000 } 
		.s6 { fill: #a50044 } 
		.s7 { fill: #004e98 } 
		.s8 { fill: #edbb01;stroke: #000000;stroke-linecap:round;stroke-width: .7 } 
		.t9 { font-size: 150px;fill: #ffffff;font-weight: 400;font-family: "LiberationSans", "Liberation Sans" } 
	</style>
	<g id="Layer">
		<g id="Layer">
			<path id="path3347-5" fill-rule="evenodd" class="s0" d="m13.13 7.89c6 2.1 12.2 1.71 18.2-1.94c7.6 4.87 14.96 4.87 22.06 0c5.87 3.63 12.02 4.21 18.39 2.34l2.26 3.19c-8.93 14.22-2.53 21.47 2.92 29.15l-3.02 3.37c0.53 15.01-6.05 25.82-26.58 28.02l-4.9 4.03l-5-3.94c-20.93-2.1-26.93-13.12-26.58-27.93l-3.11-3.56c4.25-6.17 12.32-14.75 2.92-29.17l2.45-3.57v0z" />
			<path id="rect4186" class="s1" d="m31.29 10.21c2.95 1.36 5.21 3.01 11.03 3.19v20.75h-25.93c3.43-9.63 2.51-15.19-0.99-21.7c6.32 0.91 11.58 0.1 15.89-2.25v0z" />
			<path id="path4191-1" fill-rule="evenodd" class="s2" d="m31.29 10.21c0.98 0.46 1.88 0.94 2.87 1.39v7.52h8.16v7.83h-8.2v7.22h-7.96v-7.03h-7.9c0.46-2.95 0.36-5.52-0.2-7.97h8.01v-6.98c1.88-0.44 3.62-1.1 5.23-1.98v0z" />
			<path id="path4182-6" class="s3" d="m15.4 12.46c6.32 0.91 11.58 0.1 15.89-2.25c2.95 1.36 5.22 3.01 11.03 3.19v20.71l-25.93 0.05c3.43-9.63 2.51-15.19-0.99-21.7v0z" />
			<path id="path4214" fill-rule="evenodd" class="s4" d="m45.15 13.1v21.01h-2.84l0.05-20.71c0.95-0.06 1.88-0.15 2.79-0.3h-0.01z" />
			<path id="path4216" fill-rule="evenodd" class="s2" d="m47.99 12.44v21.67h-2.84v-19.51v-1.51c0.95-0.15 1.88-0.37 2.84-0.66v0z" />
			<path id="path4218-3" fill-rule="evenodd" class="s4" d="m50.83 34.11h-2.84v-19.5v-2.16c0.93-0.28 1.86-0.64 2.84-1.07v22.74z" />
			<path id="path4220" fill-rule="evenodd" class="s2" d="m53.34 10.07c0.1 0.06 0.21 0.13 0.32 0.19v23.85h-2.84v-19.5v-3.24c0.81-0.37 1.64-0.8 2.51-1.3v0z" />
			<path id="path4224" fill-rule="evenodd" class="s4" d="m53.67 10.27c0.84 0.5 1.78 0.94 2.84 1.31v22.54h-2.84v-19.51v-4.34v0z" />
			<path id="path4226-6" fill-rule="evenodd" class="s2" d="m56.5 11.57c0.87 0.3 1.81 0.55 2.84 0.75v21.79h-2.84v-19.51v-3.03v0z" />
			<path id="path4228" fill-rule="evenodd" class="s4" d="m59.35 12.32c0.88 0.16 1.82 0.29 2.84 0.37v21.42h-2.84v-19.51v-2.28v0z" />
			<path id="path4230" fill-rule="evenodd" class="s2" d="m62.18 12.69c0.89 0.06 1.84 0.1 2.84 0.1v21.32h-2.84v-19.5v-1.92v0z" />
			<path id="path4232-5" fill-rule="evenodd" class="s4" d="m69.14 12.6c-6.03 11.8-1.83 17.84-0.85 21.51h-3.26v-19.5v-1.82c1.27 0 2.64-0.06 4.11-0.19v0z" />
			<path id="path4184" class="s3" d="m42.36 13.4c3.71-0.22 6.99-1.01 10.98-3.33c3.3 2.07 8.11 3.2 15.79 2.53c-6.03 11.8-1.83 17.84-0.85 21.51h-25.98l0.05-20.71z" />
			<path id="path4305" fill-rule="evenodd" class="s5" d="m35.57 35.44v1.51h-3.55v1.17h2.03v1.44h-2.05v2.96h-1.44v-7.06l5.02-0.01z" />
			<path id="path4307" fill-rule="evenodd" class="s5" d="m43.15 37.59c-0.41-0.47-0.68-0.79-1.52-0.79c-0.84 0-1.54 1.06-1.5 2.15c0.05 1.09 0.58 2.17 1.66 2.17c0.71 0 0.96-0.15 1.42-0.81l1.15 0.68c-0.76 1.44-1.36 1.76-2.52 1.76c-2.33 0-3.14-1.74-3.26-3.46c-0.12-1.72 0.74-3.95 3-3.95c2.25 0 2.87 1.58 2.87 1.58l-1.31 0.66v0z" />
			<path id="path4309" fill-rule="evenodd" class="s5" d="m52.36 35.36c0 0 1.54 0.27 1.54 1.74c0 0.98-0.6 1.47-0.59 1.6c0.01 0.15 0.8 0.38 0.8 1.76c0 1.49-1.64 2.22-1.69 2.14h-4.19v-7.26l4.13 0.01zm-2.64 2.65h2.14c0 0 0.39-0.16 0.37-0.59c-0.02-0.43-0.39-0.52-0.39-0.52h-2.11v1.11zm0.01 3.11h2.38c0.2-0.21 0.39-0.33 0.41-0.86c-0.02-0.42-0.26-0.65-0.44-0.76h-2.34v1.62z" />
			<path id="path4322" fill-rule="evenodd" class="s6" d="m21.94 43.93h8.16v23.29c-3.13-0.85-5.89-2.16-8.2-3.85l0.04-15.28v-4.16v0z" />
			<path id="path4324" fill-rule="evenodd" class="s7" d="m21.94 43.93v19.47c-5.88-4.29-8.83-11.12-7.38-19.47h7.38z" />
			<path id="path4326" fill-rule="evenodd" class="s7" d="m46.44 43.93h8.16v23.18c-1.75 0.5-3.67 0.91-5.76 1.22h-2.46l0.05-20.24v-4.16v0z" />
			<path id="path4328" fill-rule="evenodd" class="s6" d="m38.27 43.93h8.16v24.4h-8.22l0.05-20.24v-4.16v0z" />
			<path id="path4334" fill-rule="evenodd" class="s7" d="m62.76 43.93l7.59 0.01c0.69 8.35-1.44 15.07-7.63 19.44l0.04-15.29v-4.16v0z" />
			<path id="path4336" fill-rule="evenodd" class="s6" d="m54.6 43.93h8.16v19.43c-2.2 1.56-4.92 2.83-8.21 3.77l0.05-19.03v-4.16v0z" />
			<path id="path4338-6" fill-rule="evenodd" class="s7" d="m38.27 43.93v24.4h-0.84c-2.63-0.12-5.1-0.5-7.37-1.12l0.05-19.12v-4.16h8.16z" />
			<path id="path4320" class="s3" d="m14.56 43.93h55.79c1.06 12.89-4.6 21.9-21.51 24.4h-11.41c-15.35-0.69-25.3-10.39-22.87-24.4z" />
			<path id="path4363" class="s8" d="m42.54 63.26c-4.17 0-7.55-3.35-7.55-7.5c0-4.15 3.37-7.5 7.55-7.5c4.17 0 7.55 3.35 7.55 7.5c0 4.15-3.37 7.5-7.55 7.5z" />
			<path id="path4374" fill-rule="evenodd" class="s5" d="m42.12 48.11l0.29 0.23c-0.65 0.79-0.77 1.32-0.69 1.72c0.08 0.39 0.36 0.71 0.69 1.04c2.14-0.19 3.63 0.45 4.79 1.41c1.18 0.97 2.06 2.25 3.08 3.34l0.06 0.06l-0.01 0.08c-0.12 1.11-0.25 1.81-0.41 2.27c-0.16 0.46-0.34 0.7-0.52 0.86l-0.17 0.15l-0.11-0.19c-0.56-0.93-1.07-1.35-1.55-1.51c-0.46-0.16-0.91-0.1-1.4-0.01c-0.67 1.47-1.83 2.44-3.23 3.08c-1.44 0.66-3.13 1-4.88 1.29l-0.08 0.01l-0.06-0.06c-0.85-0.75-1.83-1.35-2.47-3.09l-0.08-0.22l0.23-0.03c0.52-0.06 0.98-0.02 1.45-0.17c0.44-0.14 0.92-0.46 1.48-1.24c-0.57-0.6-1.07-1.33-1.24-2.45c-0.18-1.2 0.01-2.81 0.82-5.2l0.35 0.12c-0.8 2.36-0.97 3.92-0.81 5.03c0.17 1.11 0.66 1.76 1.25 2.36l0.06 0.06c0.58 0.42 1.13 0.62 1.66 0.48c0.52-0.15 1.1-0.68 1.69-1.83c-0.63-0.48-1.11-1.04-1.22-1.76c-0.1-0.74 0.19-1.6 1.02-2.63c-0.32-0.33-0.63-0.69-0.73-1.17c-0.11-0.54 0.08-1.19 0.76-2.03zm1.02 3.33c-0.23 0.01-0.47 0.02-0.72 0.03c-0.83 1.02-1.08 1.8-1 2.41c0.08 0.6 0.49 1.09 1.09 1.54c0.43-0.27 0.83-0.43 1.2-0.48c0.4-0.05 0.76 0.03 1.08 0.22c0.6 0.37 1.02 1.09 1.37 2.01c0.48-0.09 0.99-0.15 1.52 0.04c0.54 0.19 1.07 0.64 1.61 1.47c0.1-0.12 0.19-0.26 0.28-0.53c0.14-0.41 0.27-1.06 0.38-2.11c-1.02-1.1-1.88-2.34-2.98-3.24c-0.85-0.7-1.83-1.2-3.16-1.33c-0.21-0.02-0.43-0.03-0.66-0.03zm0.85 3.86c-0.38-0.01-0.8 0.13-1.33 0.5c-0.63 1.26-1.28 1.91-1.97 2.1c-0.66 0.19-1.3-0.07-1.92-0.5c-0.58 0.79-1.12 1.18-1.63 1.34c-0.45 0.14-0.86 0.14-1.26 0.16c0.59 1.4 1.38 1.96 2.19 2.65c1.71-0.28 3.35-0.62 4.71-1.24c1.36-0.62 2.43-1.53 3.07-2.93c-0.33-0.92-0.74-1.6-1.24-1.89c-0.19-0.11-0.39-0.18-0.62-0.19z" />
		</g>
		<g id="Layer">
			<text id="FC Barcelona" style="transform: matrix(.118,0,0,.118,80.335,25.232)" >
				<tspan x="0" y="0" class="t9">FC Barcelona
</tspan>
			</text>
			<text id="Fan Club" style="transform: matrix(.118,0,0,.118,80.335,66.364)" >
				<tspan x="0" y="0" class="t9">Fan Club
</tspan>
			</text>
		</g>
	</g>
</svg>